<svg width="24" height="25" viewBox="0 0 24 25" fill="none" xmlns="http://www.w3.org/2000/svg">
<path opacity="0.4" d="M19.48 7.09006C19.22 6.77006 18.75 6.72001 18.43 6.98001C18.11 7.24001 18.06 7.71006 18.32 8.03006C19.45 9.43006 20.08 11.09 20.14 12.83C20.3 17.31 16.78 21.09 12.29 21.24C7.81 21.4 4.03002 17.88 3.88002 13.39C3.73002 8.90004 7.24 5.13001 11.73 4.98001C12.3 4.96001 12.9 5.01004 13.55 5.14004C13.59 5.15004 13.63 5.14004 13.67 5.14004C13.77 5.19004 13.89 5.22 14 5.22C14.17 5.22 14.33 5.17002 14.47 5.05002C14.79 4.79002 14.84 4.32003 14.59 4.00003L12.61 1.53006C12.35 1.21006 11.88 1.15 11.56 1.41C11.24 1.67 11.19 2.14005 11.44 2.46005L12.27 3.49002C12.08 3.48002 11.88 3.47001 11.69 3.48001C6.38002 3.66001 2.21004 8.14004 2.40004 13.45C2.59004 18.76 7.06001 22.93 12.37 22.74C17.68 22.55 21.85 18.08 21.66 12.77C21.56 10.71 20.82 8.74006 19.48 7.09006Z" fill="white"/>
<g filter="url(#filter0_d_39_303)">
<rect x="9" y="8" width="6" height="10" rx="1" fill="white"/>
</g>
<defs>
<filter id="filter0_d_39_303" x="6" y="8" width="12" height="17" filterUnits="userSpaceOnUse" color-interpolation-filters="sRGB">
<feFlood flood-opacity="0" result="BackgroundImageFix"/>
<feColorMatrix in="SourceAlpha" type="matrix" values="0 0 0 0 0 0 0 0 0 0 0 0 0 0 0 0 0 0 127 0" result="hardAlpha"/>
<feOffset dy="4"/>
<feGaussianBlur stdDeviation="1.5"/>
<feComposite in2="hardAlpha" operator="out"/>
<feColorMatrix type="matrix" values="0 0 0 0 0 0 0 0 0 0 0 0 0 0 0 0 0 0 0.25 0"/>
<feBlend mode="normal" in2="BackgroundImageFix" result="effect1_dropShadow_39_303"/>
<feBlend mode="normal" in="SourceGraphic" in2="effect1_dropShadow_39_303" result="shape"/>
</filter>
</defs>
</svg>
