<svg width="102" height="31" viewBox="0 0 102 31" fill="none" xmlns="http://www.w3.org/2000/svg">
<path d="M22.7136 5.9968L15.3958 3.75L8.08654 5.9968C7.96815 6.03737 7.87049 6.12401 7.81503 6.23787C7.75945 6.3516 7.75062 6.48318 7.79049 6.60366C7.83024 6.72413 7.91551 6.82351 8.02728 6.88006C8.13917 6.93649 8.26849 6.94548 8.38688 6.90503L15.4169 4.75286L22.4682 6.90503C22.5818 6.92425 22.6982 6.89991 22.7953 6.83686C22.8922 6.77382 22.9627 6.67632 22.9933 6.56346C23.0237 6.45048 23.0121 6.33013 22.9604 6.22538C22.9088 6.12077 22.8208 6.03937 22.7136 5.9968Z" fill="white"/>
<path fill-rule="evenodd" clip-rule="evenodd" d="M25.8147 7.05682C25.8861 7.12873 25.9335 7.22174 25.9501 7.32261C26.3447 10.0499 26.2111 12.8297 25.5567 15.5048C24.5161 19.71 21.8809 24.5953 15.6333 27.6986L15.4261 27.7976L15.2231 27.6986C8.96705 24.5953 6.34023 19.71 5.29968 15.5006C4.63677 12.8286 4.49309 10.0506 4.87668 7.32261C4.89444 7.21749 4.94533 7.12124 5.02164 7.04821C5.09795 6.97517 5.19555 6.92948 5.29968 6.918C5.39453 6.91075 5.4894 6.9316 5.57276 6.97829C5.65611 7.02486 5.72436 7.09515 5.76919 7.18054L9.9991 15.5952H20.8234L25.0533 7.18054C25.0992 7.08953 25.1721 7.01562 25.2617 6.96918C25.3512 6.92274 25.4528 6.90626 25.5521 6.92199C25.6514 6.93772 25.7433 6.98491 25.8147 7.05682ZM5.61691 8.98402C5.49077 11.0967 5.67902 13.2168 6.17527 15.2724C6.71523 17.5599 7.71636 19.7082 9.11514 21.5812C10.5139 23.4542 12.2798 25.0113 14.3009 26.1534L9.30543 16.3011L5.61691 8.98402ZM10.4813 16.5636L15.3964 26.2438L20.3539 16.5636H10.4813ZM21.6798 21.5747C23.0789 19.7034 24.0821 17.5576 24.6261 15.2724C25.1306 13.2124 25.3219 11.0858 25.1929 8.96679L21.5086 16.2839L16.4962 26.1448C18.5156 25.0019 20.2805 23.4458 21.6798 21.5747Z" fill="white"/>
<path fill-rule="evenodd" clip-rule="evenodd" d="M33.3202 25.1327C33.4431 25.2609 33.5903 25.3622 33.7528 25.4305C33.9152 25.4987 34.0896 25.5325 34.2652 25.5296H40.9067V24.61H34.2652C34.208 24.6121 34.1509 24.6022 34.0976 24.5809C34.0443 24.5594 33.9959 24.527 33.9553 24.4856C33.9149 24.4442 33.8832 24.3947 33.8622 24.3402C33.8413 24.2858 33.8316 24.2274 33.8337 24.1689V18.7172C33.8327 18.6602 33.8431 18.6037 33.8643 18.551C33.8854 18.4983 33.9169 18.4505 33.9567 18.4106C33.997 18.368 34.0452 18.3342 34.0986 18.311C34.152 18.2879 34.2094 18.276 34.2674 18.2761H40.9067V17.3543H34.2652C34.09 17.3534 33.9164 17.388 33.7545 17.456C33.5924 17.5241 33.4452 17.6242 33.3212 17.7507C33.1972 17.8772 33.099 18.0276 33.0322 18.1931C32.9653 18.3586 32.9312 18.5359 32.9318 18.715V24.1689C32.9293 24.3481 32.9624 24.5259 33.0292 24.6915C33.0959 24.8572 33.1949 25.0073 33.3202 25.1327ZM46.0508 17.3565V25.5296H53.3504V24.61H46.9527V21.9084H52.0924V20.9777H46.9527V18.2761H53.3504V17.3543L46.0508 17.3565ZM58.4858 25.5296V17.3697H65.151C65.5038 17.3726 65.8413 17.5171 66.0908 17.7721C66.3402 18.0271 66.4816 18.3721 66.4844 18.7326V21.1255C66.4861 21.3048 66.4526 21.4827 66.3859 21.6487C66.3191 21.8145 66.2206 21.9651 66.0961 22.0914C65.9731 22.2197 65.8259 22.321 65.6634 22.3893C65.501 22.4575 65.3266 22.4912 65.151 22.4884H63.9297L66.4391 25.5142H65.2503L62.7537 22.4884L59.3877 22.4752V25.5296H58.4858ZM59.8192 21.5599H65.151C65.2066 21.5606 65.2619 21.5497 65.3134 21.5281C65.3649 21.5065 65.4117 21.4746 65.4509 21.4342C65.4908 21.3945 65.5223 21.3467 65.5435 21.294C65.5646 21.2413 65.575 21.1846 65.5739 21.1277V18.7304C65.575 18.6735 65.5646 18.6169 65.5435 18.5642C65.5223 18.5114 65.4908 18.4637 65.4509 18.4239C65.4135 18.3803 65.3674 18.3455 65.3156 18.3219C65.2638 18.2983 65.2076 18.2865 65.151 18.2872H59.8192C59.7611 18.2874 59.7036 18.2996 59.6502 18.3231C59.5968 18.3466 59.5486 18.3809 59.5085 18.4239C59.4693 18.4641 59.4384 18.512 59.4177 18.5646C59.3969 18.6172 59.3867 18.6737 59.3877 18.7304V21.1255C59.3867 21.1823 59.3969 21.2386 59.4177 21.2913C59.4384 21.344 59.4693 21.3918 59.5085 21.432C59.593 21.5123 59.7039 21.5572 59.8192 21.5578V21.5599ZM74.7806 18.2761V25.5296H75.6831V18.2761H79.2279V17.3543H71.2296V18.2739L74.7806 18.2761ZM83.975 17.3543H84.8856V25.5275H83.975V17.3543ZM90.3705 17.3543V25.5275H91.2812V21.9084H93.8571L96.8349 25.5296H98.0003L94.6495 21.4431L98.0003 17.3675H96.8456L93.8684 20.9888H91.283V17.3543H90.3705Z" fill="white"/>
<path d="M37.4986 11.8302L35.5303 7.13483H34.9483L32.9766 11.8302H33.6201L34.0617 10.7669H36.4135L36.8551 11.8302H37.4986ZM35.2154 7.99451L35.2359 7.9151H35.2427L35.2599 7.99451L36.1978 10.249H34.2774L35.2154 7.99451Z" fill="white"/>
<path d="M41.078 11.9269C42.2042 11.9269 43.0052 11.1432 43.0052 10.0107V7.13135H42.3993V9.97277C42.3993 10.7392 41.9064 11.3607 41.078 11.3607C40.229 11.3607 39.7532 10.7289 39.7532 9.96586V7.13135H39.1507V10.0107C39.1507 11.1742 39.9928 11.9269 41.078 11.9269Z" fill="white"/>
<path d="M47.2966 11.8302C48.7652 11.8302 49.7408 10.8912 49.7408 9.47909C49.7408 8.07391 48.7583 7.13483 47.2863 7.13483H45.585V11.8302H47.2966ZM46.1806 7.68033H47.2692C48.4263 7.68033 49.128 8.4019 49.128 9.4929C49.128 10.5804 48.4228 11.2778 47.2829 11.2778H46.1806V7.68033Z" fill="white"/>
<path d="M52.6663 11.8302V7.13483H52.0603V11.8302H52.6663Z" fill="white"/>
<path d="M56.9508 11.8302V7.68378H58.4262V7.13483H54.8729V7.68378H56.3449V11.8302H56.9508Z" fill="white"/>
<path d="M63.7616 11.8302V11.2778H61.2421V9.7035H63.4056V9.17872H61.2421V7.69068H63.7308V7.13483H60.6362V11.8302H63.7616Z" fill="white"/>
<path d="M67.7551 11.8302C69.2237 11.8302 70.1993 10.8912 70.1993 9.47909C70.1993 8.07391 69.2169 7.13483 67.7449 7.13483H66.0435V11.8302H67.7551ZM66.6392 7.68033H67.7278C68.8848 7.68033 69.5866 8.4019 69.5866 9.4929C69.5866 10.5804 68.8814 11.2778 67.7415 11.2778H66.6392V7.68033Z" fill="white"/>
<path d="M77.8372 11.8302C78.5629 11.8302 79.2407 11.3538 79.2407 10.5045C79.2407 9.95553 78.8471 9.4929 78.3541 9.34789C78.6999 9.19598 78.9703 8.80239 78.9703 8.37083C78.9703 7.63544 78.4157 7.13483 77.6421 7.13483H75.6532V11.8302H77.8372ZM76.266 7.66652H77.6181C78.0289 7.66652 78.3576 7.99796 78.3576 8.41571C78.3576 8.84037 78.0289 9.17181 77.6147 9.17181H76.266V7.66652ZM76.266 9.64481H77.7961C78.2583 9.64481 78.6177 10.0108 78.6177 10.4596C78.6177 10.936 78.2549 11.2917 77.7893 11.2917H76.266V9.64481Z" fill="white"/>
<path d="M83.2856 11.8302L83.2822 10.028L85.165 7.13483H84.4461L82.9844 9.48254H82.981L81.5124 7.13483H80.7969L82.6797 10.0315V11.8302H83.2856Z" fill="white"/>
<path fill-rule="evenodd" clip-rule="evenodd" d="M90.5645 6.41667C91.9834 5.97475 93.5114 5.38552 94.0571 4.75946C94.6028 5.38552 96.1309 5.97475 97.5498 6.41667C97.6589 8.03705 97.1131 11.6093 94.0571 12.935C91.0011 11.6093 90.4553 8.03705 90.5645 6.41667ZM93.3935 9.46317L95.5405 7.29775C95.6829 7.15412 95.9166 7.15412 96.059 7.29775C96.2014 7.44137 96.2014 7.67338 96.059 7.81701L93.6527 10.2439C93.5103 10.3875 93.2803 10.3875 93.1379 10.2439L92.1922 9.29008C92.0498 9.14645 92.0498 8.91445 92.1922 8.77082C92.3346 8.6272 92.5646 8.6272 92.707 8.77082L93.3935 9.46317Z" fill="#1DC872"/>
</svg>
