<svg width="32" height="32" viewBox="0 0 32 32" fill="none" xmlns="http://www.w3.org/2000/svg">
<path d="M16 2.66663C8.65329 2.66663 2.66663 8.65329 2.66663 16C2.66663 23.3466 8.65329 29.3333 16 29.3333C23.3466 29.3333 29.3333 23.3466 29.3333 16C29.3333 8.65329 23.3466 2.66663 16 2.66663ZM20.48 19.0666C20.8666 19.4533 20.8666 20.0933 20.48 20.48C20.28 20.68 20.0266 20.7733 19.7733 20.7733C19.52 20.7733 19.2666 20.68 19.0666 20.48L16 17.4133L12.9333 20.48C12.7333 20.68 12.48 20.7733 12.2266 20.7733C11.9733 20.7733 11.72 20.68 11.52 20.48C11.1333 20.0933 11.1333 19.4533 11.52 19.0666L14.5866 16L11.52 12.9333C11.1333 12.5466 11.1333 11.9066 11.52 11.52C11.9066 11.1333 12.5466 11.1333 12.9333 11.52L16 14.5866L19.0666 11.52C19.4533 11.1333 20.0933 11.1333 20.48 11.52C20.8666 11.9066 20.8666 12.5466 20.48 12.9333L17.4133 16L20.48 19.0666Z" fill="#07141F"/>
</svg>
