<svg width="48" height="48" viewBox="0 0 48 48" fill="none" xmlns="http://www.w3.org/2000/svg">
<circle cx="24" cy="24" r="24" fill="#2FBB99"/>
<path opacity="0.4" d="M24.3399 41C15.3264 41 8 33.3777 8 24C8 14.6223 15.3264 7 24.3399 7C31.5446 7 37.807 11.8074 39.9502 18.9395C40.1326 19.5721 39.7982 20.2363 39.2054 20.426C38.5974 20.6158 37.959 20.2679 37.7766 19.6512C35.9374 13.4995 30.5414 9.37209 24.3551 9.37209C16.6031 9.37209 10.2952 15.9349 10.2952 24C10.2952 32.0651 16.6031 38.6279 24.3551 38.6279C30.5262 38.6279 35.9222 34.5163 37.7614 28.3963C37.9438 27.7637 38.5822 27.4316 39.1902 27.6214C39.7982 27.8112 40.1174 28.4912 39.935 29.1079C37.7766 36.2242 31.5142 41 24.3399 41Z" fill="white"/>
<rect x="15" y="18" width="8" height="12" rx="1" fill="white"/>
<g filter="url(#filter0_d_48_435)">
<rect x="21" y="13" width="7" height="12" rx="1" fill="white"/>
</g>
<rect x="26" y="18" width="8" height="12" rx="1" fill="white"/>
<defs>
<filter id="filter0_d_48_435" x="18" y="13" width="13" height="19" filterUnits="userSpaceOnUse" color-interpolation-filters="sRGB">
<feFlood flood-opacity="0" result="BackgroundImageFix"/>
<feColorMatrix in="SourceAlpha" type="matrix" values="0 0 0 0 0 0 0 0 0 0 0 0 0 0 0 0 0 0 127 0" result="hardAlpha"/>
<feOffset dy="4"/>
<feGaussianBlur stdDeviation="1.5"/>
<feComposite in2="hardAlpha" operator="out"/>
<feColorMatrix type="matrix" values="0 0 0 0 0 0 0 0 0 0 0 0 0 0 0 0 0 0 0.25 0"/>
<feBlend mode="normal" in2="BackgroundImageFix" result="effect1_dropShadow_48_435"/>
<feBlend mode="normal" in="SourceGraphic" in2="effect1_dropShadow_48_435" result="shape"/>
</filter>
</defs>
</svg>
