<?xml version="1.0" encoding="UTF-8" standalone="no"?><!-- Generator: Gravit.io --><svg xmlns="http://www.w3.org/2000/svg" xmlns:xlink="http://www.w3.org/1999/xlink" style="isolation:isolate" viewBox="0 0 1900 800" width="1900pt" height="800pt"><defs><clipPath id="_clipPath_uUCoA1u2IOR7L1NfyqKtjXrTlWvCbEyp"><rect width="1900" height="800"/></clipPath></defs><g clip-path="url(#_clipPath_uUCoA1u2IOR7L1NfyqKtjXrTlWvCbEyp)"><g style="isolation:isolate"/><g><mask id="_mask_fZiELsO2vH4kUOqFu3c5XmQBJLqZe1Vh"><ellipse vector-effect="non-scaling-stroke" cx="920.9999999999999" cy="399.99999999999994" rx="755" ry="322" fill="white" stroke="none"/></mask><ellipse vector-effect="non-scaling-stroke" cx="920.9999999999999" cy="399.99999999999994" rx="755" ry="322" fill="none"/><ellipse vector-effect="non-scaling-stroke" cx="920.9999999999999" cy="399.99999999999994" rx="755" ry="322" fill="none" mask="url(#_mask_fZiELsO2vH4kUOqFu3c5XmQBJLqZe1Vh)" stroke-width="2" stroke="rgb(0,0,0)" stroke-linejoin="miter" stroke-linecap="square" stroke-miterlimit="3" style="mix-blend-mode:multiply;"/><path d=" M 645 99 C 645 99 654 99.5 654 99.5 C 662.385 97.565 670.991 96.216 679.5 95 C 687.084 95 697.13 94.623 703.5 92.5 C 711.409 89.864 720.151 89.5 727 89.5 C 735.733 89.5 742.625 87.5 749.5 87.5 C 757.574 87.5 764.321 85 771 85 C 778.559 85 785.697 83 792 83 C 799.535 83 806.126 82.5 812.5 82.5 C 820.112 82.5 826.984 81 834 81 C 841.927 81 849.026 79 856 79 C 864.001 79 871.177 78.5 878 78.5 C 886.693 78.5 894.64 78 902.5 78 C 910.667 78 917.833 78 925 78 C 933.333 78 940.667 78 948 78 C 957.288 78 965.235 79 972.5 79 C 982.132 79 990.542 80.5 999 80.5 C 1006.206 80.5 1019.461 77.98 1024.5 80.5 C 1029.998 83.249 1042.5 83 1047.5 83 L 1049 83" fill="none" vector-effect="non-scaling-stroke" stroke-width="1" stroke="rgb(0,0,0)" stroke-linejoin="miter" stroke-linecap="square" stroke-miterlimit="3"/><path d=" M 1049 83 C 1056.492 84.334 1064.554 82.759 1072 84 C 1079.311 87.655 1091.146 87 1098 87 C 1107.862 87 1116.407 89.5 1125 89.5 C 1134.13 89.5 1141.966 92.5 1149 92.5 C 1157.239 92.5 1164.704 96.5 1172 96.5 C 1181.449 96.5 1190.035 101.5 1198 101.5 C 1206.913 101.5 1214.07 105 1221 105 C 1227.624 105 1238.573 106.036 1243.5 108.5 C 1251.775 112.637 1262.806 109.403 1270 113 C 1274.978 115.489 1287.132 119 1291.5 119 C 1296.091 119 1299.971 122.5 1303.5 122.5" fill="none" vector-effect="non-scaling-stroke" stroke-width="1" stroke="rgb(0,0,0)" stroke-linejoin="miter" stroke-linecap="square" stroke-miterlimit="3"/><path d=" M 1303.5 122.5 C 1304.539 125.27 1320.942 128.481 1324 129.5 C 1330.879 129.5 1340.665 131.832 1346 134.5 C 1352.506 137.753 1363.475 141.5 1369.5 141.5 C 1374.791 141.5 1385.624 144.562 1389.5 146.5 C 1396.555 150.027 1403.448 156 1410.5 156 C 1419.248 156 1423.354 164.5 1431 164.5 C 1437.73 164.5 1448.321 169.161 1453 171.5 C 1461.005 175.502 1468.762 177.881 1476 181.5 C 1482.041 184.52 1493.273 186.773 1497 190.5 C 1502.641 196.141 1511.52 200.76 1517 203.5 C 1521.084 205.542 1536.537 211.074 1538 214 C 1539.59 217.179 1552.487 226.243 1555 227.5 C 1563.161 231.581 1569.399 236.95 1576.5 240.5 C 1586.712 245.606 1592.553 255.776 1601 260 C 1609.199 264.1 1614.493 276.996 1621.5 280.5 C 1626.193 282.847 1636.416 295.331 1638.5 299.5 C 1642.918 308.336 1650.236 315.354 1655 322.5 C 1660.206 330.31 1661.654 335.961 1664 343 C 1666.082 349.247 1672 357.914 1672 363" fill="none" vector-effect="non-scaling-stroke" stroke-width="1" stroke="rgb(0,0,0)" stroke-linejoin="miter" stroke-linecap="square" stroke-miterlimit="3"/><path d=" M 1672 363 C 1672 363 1674 384.5 1674 384.5 C 1674 392.597 1676.5 398.809 1676.5 405.5 C 1676.5 414.571 1673.5 422.039 1673.5 429 C 1673.5 433.96 1671.25 447.25 1668.5 450 C 1663.635 454.865 1661.134 465.733 1658.5 471 C 1654.489 479.022 1648.427 484.145 1645 491 C 1641.025 498.95 1637.101 505.399 1631.5 511 C 1625.026 517.474 1619.323 522.177 1614 527.5 C 1606.646 534.854 1599.954 541.546 1593.5 548 C 1586.363 555.137 1574.877 558.123 1568.5 564.5 C 1562.151 570.849 1553.933 573.567 1548.5 579 C 1542.425 585.075 1531.362 589.773 1524 591 C 1515.582 592.403 1496.651 601.699 1495.5 604 C 1491.288 612.424 1481.337 613.331 1475 616.5 C 1466.253 620.874 1457.763 624.246 1449.5 627 C 1439.687 630.271 1430.907 634.047 1423 638 C 1413.286 642.857 1402.387 643.307 1394 647.5 C 1384.424 652.288 1374.642 653.953 1365.5 657 C 1354.171 660.776 1343.64 663.787 1334 667 C 1324.312 670.229 1314.334 674.611 1306 676 C 1294.008 677.999 1284.25 678.875 1276 683 C 1264.678 688.661 1254.098 692 1242.5 692 C 1227.379 692 1214.097 701 1199.5 701 C 1180.371 701 1166.883 704 1152.5 704 C 1149.043 704 1144.888 707 1141.5 707" fill="none" vector-effect="non-scaling-stroke" stroke-width="1" stroke="rgb(0,0,0)" stroke-linejoin="miter" stroke-linecap="square" stroke-miterlimit="3"/><path d=" M 1141.5 707 C 1124.226 709.94 1105.401 714 1087.5 714 C 1073.106 714 1060.031 715 1047 715 C 1033.245 715 1021.999 719.5 1009 719.5 C 997.168 719.5 987.312 721.5 977 721.5 C 965.857 721.5 958.57 720 950.5 720 C 938.248 720 928.49 722 918 722 C 906.3 722 896.24 721.5 886 721.5 C 874.231 721.5 857.795 722.932 847.5 719.5 C 837.414 716.138 821.723 718 812.5 718 C 798.593 718 785.127 718.5 772 718.5 C 763.072 718.5 757.538 712 749.5 712 C 738.982 712 728.106 713.277 719 711 C 709.067 708.517 698.77 707 690.5 707 C 678.639 707 665.688 705.063 656.5 702 C 647.245 698.915 638.214 699.571 630.5 697 C 619.533 693.344 607.11 697.055 598 692.5 C 589.098 688.049 578.354 688.677 570 684.5 C 559.777 679.388 545.599 680.346 535.5 679" fill="none" vector-effect="non-scaling-stroke" stroke-width="1" stroke="rgb(0,0,0)" stroke-linejoin="miter" stroke-linecap="square" stroke-miterlimit="3"/><path d=" M 535.5 679 C 527.49 670.99 518.592 674.197 509 671 C 500.71 666.855 490.647 669.074 483.5 665.5 C 476.498 661.999 465.075 655 458.5 655 C 449.884 655 442.512 646 435 646 C 429.393 646 413.136 638.068 409 636 C 402.354 632.677 392.486 632.486 388 628 C 383.312 623.312 371.349 619.283 366 617.5 C 357.537 614.679 350.712 610.856 344 607.5 C 336.426 603.713 330.136 598.818 323.5 595.5 C 318.061 592.78 308.618 585 304.5 585 C 299.305 585 287.908 573.408 285 570.5 C 279.364 564.864 269.627 561.064 263.5 558 C 257.154 554.827 243.161 547.323 240.5 542 C 237.704 536.409 230.79 524.395 226 522 C 218.272 518.136 205.415 505.829 201.5 498 C 196.4 487.8 192.741 478.861 187.5 471 C 182.493 463.49 177.246 453.737 175 447 C 172.113 438.339 170.846 431.037 168.5 424 C 165.438 414.813 164 407.318 164 399 C 164 383.289 168.168 371.493 170.5 357.5 C 172.896 343.125 178.978 336.044 184 326 C 189.252 315.497 197.816 296.842 206.5 292.5 L 207.5 292 L 208.5 291.5" fill="none" vector-effect="non-scaling-stroke" stroke-width="1" stroke="rgb(0,0,0)" stroke-linejoin="miter" stroke-linecap="square" stroke-miterlimit="3"/><path d=" M 208.5 291.5 C 215.188 283.164 223.39 276.766 233 271 C 242.048 264.968 246.744 256.256 253 250 C 261.026 241.974 271.792 238.639 279.5 233.5 C 287.578 228.115 295.667 218.278 302.5 216 C 311.941 212.853 321.282 206.312 328.5 201.5 C 338.853 194.598 347.757 189.914 358 186.5 C 367.677 183.274 375.932 179.284 383.5 175.5 C 392.495 171.002 401.048 167.476 409 163.5 C 416.949 159.525 429.577 153.5 437 153.5 C 451.398 153.5 470.723 146.388 482.5 140.5 C 491.997 135.751 501.024 129.5 511 129.5 C 520.71 129.5 529.762 122 538.5 122 C 547.118 122 558.501 117.375 566 115.5 C 576.153 112.962 588.015 112.743 595.5 109 C 601.306 106.097 615.792 103 621.5 103 C 630.697 103 638.93 100.178 646 99" fill="none" vector-effect="non-scaling-stroke" stroke-width="1" stroke="rgb(0,0,0)" stroke-linejoin="miter" stroke-linecap="square" stroke-miterlimit="3"/></g></g></svg>