<?xml version="1.0" encoding="UTF-8" standalone="no"?><!-- Generator: Gravit.io --><svg xmlns="http://www.w3.org/2000/svg" xmlns:xlink="http://www.w3.org/1999/xlink" style="isolation:isolate" viewBox="0 0 1517 651" width="1517pt" height="651pt"><defs><clipPath id="_clipPath_Bgsqh3iZy9FKuC3ZA2eqoEq7uGXgAv2D"><rect width="1517" height="651"/></clipPath></defs><g clip-path="url(#_clipPath_Bgsqh3iZy9FKuC3ZA2eqoEq7uGXgAv2D)"><g><mask id="_mask_yRL7r3FxJOzRixDDNdz1JoquLR8bsiRR"><ellipse vector-effect="non-scaling-stroke" cx="758.9999999999999" cy="323.9999999999996" rx="755" ry="322" fill="white" stroke="none"/></mask><ellipse vector-effect="non-scaling-stroke" cx="758.9999999999999" cy="323.9999999999996" rx="755" ry="322" fill="none"/><ellipse vector-effect="non-scaling-stroke" cx="758.9999999999999" cy="323.9999999999996" rx="755" ry="322" fill="none" mask="url(#_mask_yRL7r3FxJOzRixDDNdz1JoquLR8bsiRR)" stroke-width="2" stroke="rgb(0,0,0)" stroke-linejoin="miter" stroke-linecap="square" stroke-miterlimit="3" style="mix-blend-mode:multiply;"/><path d=" M 342 58 M 484 22 M 483 23 C 483 23 492 23.5 492 23.5 C 500.385 21.565 508.991 20.216 517.5 19 C 525.084 19 535.13 18.623 541.5 16.5 C 549.409 13.864 558.151 13.5 565 13.5 C 573.733 13.5 580.625 11.5 587.5 11.5 C 595.574 11.5 602.321 9 609 9 C 616.559 9 623.697 7 630 7 C 637.535 7 644.126 6.5 650.5 6.5 C 658.112 6.5 664.984 5 672 5 C 679.927 5 687.026 3 694 3 C 702.001 3 709.177 2.5 716 2.5 C 724.693 2.5 732.64 2 740.5 2 C 748.667 2 755.833 2 763 2 C 771.333 2 778.667 2 786 2 C 795.288 2 803.235 3 810.5 3 C 820.132 3 828.542 4.5 837 4.5 C 844.206 4.5 857.461 1.98 862.5 4.5 C 867.998 7.249 880.5 7 885.5 7 L 887 7 M 887 7 C 894.492 8.334 902.554 6.759 910 8 C 917.311 11.655 929.146 11 936 11 C 945.862 11 954.407 13.5 963 13.5 C 972.13 13.5 979.966 16.5 987 16.5 C 995.239 16.5 1002.704 20.5 1010 20.5 C 1019.449 20.5 1028.035 25.5 1036 25.5 C 1044.913 25.5 1052.07 29 1059 29 C 1065.624 29 1076.573 30.036 1081.5 32.5 C 1089.775 36.637 1100.806 33.403 1108 37 C 1112.978 39.489 1125.132 43 1129.5 43 C 1134.091 43 1137.971 46.5 1141.5 46.5 M 1141.5 46.5 C 1142.539 49.27 1158.942 52.481 1162 53.5 C 1168.879 53.5 1178.665 55.832 1184 58.5 C 1190.506 61.753 1201.475 65.5 1207.5 65.5 C 1212.791 65.5 1223.624 68.562 1227.5 70.5 C 1234.555 74.027 1241.448 80 1248.5 80 C 1257.248 80 1261.354 88.5 1269 88.5 C 1275.73 88.5 1286.321 93.161 1291 95.5 C 1299.005 99.502 1306.762 101.881 1314 105.5 C 1320.041 108.52 1331.273 110.773 1335 114.5 C 1340.641 120.141 1349.52 124.76 1355 127.5 C 1359.084 129.542 1374.537 135.074 1376 138 C 1377.59 141.179 1390.487 150.243 1393 151.5 C 1401.161 155.581 1407.399 160.95 1414.5 164.5 C 1424.712 169.606 1430.553 179.776 1439 184 C 1447.199 188.1 1452.493 200.996 1459.5 204.5 C 1464.193 206.847 1474.416 219.331 1476.5 223.5 C 1480.918 232.336 1488.236 239.354 1493 246.5 C 1498.206 254.31 1499.654 259.961 1502 267 C 1504.082 273.247 1510 281.914 1510 287 M 1510 287 C 1510 287 1512 308.5 1512 308.5 C 1512 316.598 1514.5 322.809 1514.5 329.5 C 1514.5 338.571 1511.5 346.039 1511.5 353 C 1511.5 357.96 1509.25 371.25 1506.5 374 C 1501.635 378.865 1499.134 389.733 1496.5 395 C 1492.489 403.022 1486.427 408.145 1483 415 C 1479.025 422.95 1475.101 429.399 1469.5 435 C 1463.026 441.474 1457.323 446.177 1452 451.5 C 1444.646 458.854 1437.954 465.546 1431.5 472 C 1424.363 479.137 1412.877 482.123 1406.5 488.5 C 1400.151 494.849 1391.933 497.567 1386.5 503 C 1380.425 509.075 1369.362 513.773 1362 515 C 1353.582 516.403 1334.651 525.699 1333.5 528 C 1329.288 536.424 1319.337 537.331 1313 540.5 C 1304.253 544.874 1295.763 548.246 1287.5 551 C 1277.687 554.271 1268.907 558.047 1261 562 C 1251.286 566.857 1240.387 567.307 1232 571.5 C 1222.424 576.288 1212.642 577.953 1203.5 581 C 1192.171 584.776 1181.641 587.786 1172 591 C 1162.312 594.229 1152.334 598.611 1144 600 C 1132.008 601.999 1122.25 602.875 1114 607 C 1102.678 612.661 1092.098 616 1080.5 616 C 1065.379 616 1052.097 625 1037.5 625 C 1018.371 625 1004.883 628 990.5 628 C 987.043 628 982.888 631 979.5 631 M 979.5 631 C 962.226 633.94 943.401 638 925.5 638 C 911.106 638 898.031 639 885 639 C 871.245 639 859.999 643.5 847 643.5 C 835.168 643.5 825.312 645.5 815 645.5 C 803.857 645.5 796.57 644 788.5 644 C 776.248 644 766.49 646 756 646 C 744.3 646 734.24 645.5 724 645.5 C 712.231 645.5 695.795 646.932 685.5 643.5 C 675.414 640.138 659.722 642 650.5 642 C 636.593 642 623.127 642.5 610 642.5 C 601.072 642.5 595.538 636 587.5 636 C 576.982 636 566.106 637.277 557 635 C 547.067 632.517 536.77 631 528.5 631 C 516.639 631 503.688 629.063 494.5 626 C 485.245 622.915 476.214 623.571 468.5 621 C 457.533 617.344 445.11 621.055 436 616.5 C 427.098 612.049 416.354 612.677 408 608.5 C 397.777 603.388 383.599 604.346 373.5 603 M 373.5 603 C 365.49 594.99 356.592 598.197 347 595 C 338.71 590.855 328.647 593.074 321.5 589.5 C 314.498 585.999 303.075 579 296.5 579 C 287.884 579 280.512 570 273 570 C 267.393 570 251.136 562.068 247 560 C 240.354 556.677 230.486 556.486 226 552 C 221.312 547.312 209.349 543.283 204 541.5 C 195.537 538.679 188.712 534.856 182 531.5 C 174.426 527.713 168.136 522.818 161.5 519.5 C 156.061 516.78 146.618 509 142.5 509 C 137.305 509 125.908 497.408 123 494.5 C 117.364 488.864 107.627 485.064 101.5 482 C 95.154 478.827 81.161 471.323 78.5 466 C 75.704 460.409 68.79 448.395 64 446 C 56.272 442.136 43.415 429.829 39.5 422 C 34.4 411.8 30.741 402.861 25.5 395 C 20.493 387.49 15.246 377.737 13 371 C 10.113 362.339 8.846 355.037 6.5 348 C 3.438 338.813 2 331.318 2 323 C 2 307.289 6.168 295.493 8.5 281.5 C 10.896 267.125 16.978 260.044 22 250 C 27.252 239.497 35.816 220.842 44.5 216.5 L 45.5 216 L 46.5 215.5 M 46.5 215.5 C 53.188 207.164 61.39 200.766 71 195 C 80.048 188.968 84.744 180.256 91 174 C 99.026 165.974 109.792 162.639 117.5 157.5 C 125.578 152.115 133.667 142.278 140.5 140 C 149.941 136.853 159.282 130.312 166.5 125.5 C 176.853 118.598 185.757 113.914 196 110.5 C 205.677 107.274 213.932 103.284 221.5 99.5 C 230.495 95.002 239.048 91.476 247 87.5 C 254.949 83.525 267.577 77.5 275 77.5 C 289.398 77.5 308.723 70.388 320.5 64.5 C 329.997 59.751 339.024 53.5 349 53.5 C 358.71 53.5 367.762 46 376.5 46 C 385.118 46 396.501 41.375 404 39.5 C 414.153 36.962 426.015 36.743 433.5 33 C 439.306 30.097 453.792 27 459.5 27 C 468.697 27 476.93 24.178 484 23" fill-rule="evenodd" fill="none" vector-effect="non-scaling-stroke" stroke-width="1" stroke="rgb(0,0,0)" stroke-linejoin="miter" stroke-linecap="square" stroke-miterlimit="3"/></g></g></svg>